<?xml version="1.0" encoding="UTF-8"?>
<!DOCTYPE svg PUBLIC "-//W3C//DTD SVG 1.1//EN" "http://www.w3.org/Graphics/SVG/1.1/DTD/svg11.dtd">
<svg xmlns="http://www.w3.org/2000/svg" version="1.1" width="1024px" height="1024px" style="shape-rendering:geometricPrecision; text-rendering:geometricPrecision; image-rendering:optimizeQuality; fill-rule:evenodd; clip-rule:evenodd" xmlns:xlink="http://www.w3.org/1999/xlink">
<g><path style="opacity:1" fill="#f9cb14" d="M -0.5,-0.5 C 340.833,-0.5 682.167,-0.5 1023.5,-0.5C 1023.5,340.833 1023.5,682.167 1023.5,1023.5C 682.167,1023.5 340.833,1023.5 -0.5,1023.5C -0.5,682.167 -0.5,340.833 -0.5,-0.5 Z"/></g>
<g><path style="opacity:1" fill="#e94420" d="M 849.5,703.5 C 849.05,639.131 838.55,576.464 818,515.5C 788.277,429.111 730.777,369.611 645.5,337C 574.05,311.635 501.383,307.635 427.5,325C 359.218,341.368 305.052,378.201 265,435.5C 212.749,508.403 182.915,589.736 175.5,679.5C 174.508,686.982 174.175,694.648 174.5,702.5C 151.164,702.667 127.831,702.5 104.5,702C 102.935,577.362 142.102,467.529 222,372.5C 339.405,244.832 481.905,204.999 649.5,253C 788.552,297.399 873.052,391.233 903,534.5C 913.989,590.289 919.155,646.622 918.5,703.5C 895.5,703.5 872.5,703.5 849.5,703.5 Z"/></g>
<g><path style="opacity:1" fill="#78b837" d="M 849.5,703.5 C 824.833,703.5 800.167,703.5 775.5,703.5C 775.829,689.323 775.496,675.323 774.5,661.5C 769.225,582.326 740.391,513.326 688,454.5C 625.493,389.585 550.326,366.918 462.5,386.5C 457.835,387.057 453.502,388.39 449.5,390.5C 411.843,403.993 379.343,425.326 352,454.5C 305.293,506.601 277.459,567.601 268.5,637.5C 267.111,642.269 266.444,647.269 266.5,652.5C 265.708,658.13 265.375,663.797 265.5,669.5C 264.505,680.321 264.172,691.321 264.5,702.5C 234.833,702.5 205.167,702.5 175.5,702.5C 175.5,694.833 175.5,687.167 175.5,679.5C 182.915,589.736 212.749,508.403 265,435.5C 305.052,378.201 359.218,341.368 427.5,325C 501.383,307.635 574.05,311.635 645.5,337C 730.777,369.611 788.277,429.111 818,515.5C 838.55,576.464 849.05,639.131 849.5,703.5 Z"/></g>
<g><path style="opacity:1" fill="#3e68fe" d="M 774.5,661.5 C 774.5,675.167 774.5,688.833 774.5,702.5C 748.833,702.5 723.167,702.5 697.5,702.5C 694.8,648.702 681.3,597.702 657,549.5C 647.842,533.188 637.342,517.855 625.5,503.5C 625.611,502.883 625.944,502.383 626.5,502C 598.402,468.861 563.069,450.694 520.5,447.5C 513.819,448.224 507.153,449.057 500.5,450C 497.705,451.047 495.372,452.547 493.5,454.5C 459.6,464.039 431.767,482.706 410,510.5C 378.572,552.048 358.572,598.715 350,650.5C 347.285,667.559 345.452,684.559 344.5,701.5C 318.167,701.5 291.833,701.5 265.5,701.5C 265.5,690.833 265.5,680.167 265.5,669.5C 265.375,663.797 265.708,658.13 266.5,652.5C 267.889,647.731 268.556,642.731 268.5,637.5C 277.459,567.601 305.293,506.601 352,454.5C 379.343,425.326 411.843,403.993 449.5,390.5C 454.165,389.943 458.498,388.61 462.5,386.5C 550.326,366.918 625.493,389.585 688,454.5C 740.391,513.326 769.225,582.326 774.5,661.5 Z"/></g>
<g><path style="opacity:1" fill="#5378d2" d="M 462.5,386.5 C 458.498,388.61 454.165,389.943 449.5,390.5C 453.502,388.39 457.835,387.057 462.5,386.5 Z"/></g>
<g><path style="opacity:1" fill="#4e6df2" d="M 625.5,503.5 C 605.325,480.674 580.658,464.674 551.5,455.5C 532.215,450.635 512.882,450.301 493.5,454.5C 495.372,452.547 497.705,451.047 500.5,450C 507.153,449.057 513.819,448.224 520.5,447.5C 563.069,450.694 598.402,468.861 626.5,502C 625.944,502.383 625.611,502.883 625.5,503.5 Z"/></g>
<g><path style="opacity:1" fill="#5780bd" d="M 268.5,637.5 C 268.556,642.731 267.889,647.731 266.5,652.5C 266.444,647.269 267.111,642.269 268.5,637.5 Z"/></g>
<g><path style="opacity:1" fill="#5c7dcf" d="M 265.5,669.5 C 265.5,680.167 265.5,690.833 265.5,701.5C 291.833,701.5 318.167,701.5 344.5,701.5C 318.005,702.498 291.339,702.831 264.5,702.5C 264.172,691.321 264.505,680.321 265.5,669.5 Z"/></g>
<g><path style="opacity:1" fill="#7f8ca6" d="M 774.5,661.5 C 775.496,675.323 775.829,689.323 775.5,703.5C 749.328,703.831 723.328,703.498 697.5,702.5C 723.167,702.5 748.833,702.5 774.5,702.5C 774.5,688.833 774.5,675.167 774.5,661.5 Z"/></g>
</svg>
